<svg width="100" height="100" viewBox="0 0 100 100" xmlns="http://www.w3.org/2000/svg">
  <g fill="#000000" fill-opacity="0.1">
    <!-- Paw pattern - repeating element -->
    <path d="M30,15 C32,10 36,10 38,15 C40,20 39,22 37,25 C35,28 33,28 31,25 C29,22 28,20 30,15 Z" />
    <path d="M20,20 C22,15 26,15 28,20 C30,25 29,27 27,30 C25,33 23,33 21,30 C19,27 18,25 20,20 Z" />
    <path d="M40,20 C42,15 46,15 48,20 C50,25 49,27 47,30 C45,33 43,33 41,30 C39,27 38,25 40,20 Z" />
    <path d="M30,30 C35,30 40,35 40,40 C40,48 35,55 30,55 C25,55 20,48 20,40 C20,35 25,30 30,30 Z" />
    
    <!-- Repeat paw pattern -->
    <path d="M70,45 C72,40 76,40 78,45 C80,50 79,52 77,55 C75,58 73,58 71,55 C69,52 68,50 70,45 Z" />
    <path d="M60,50 C62,45 66,45 68,50 C70,55 69,57 67,60 C65,63 63,63 61,60 C59,57 58,55 60,50 Z" />
    <path d="M80,50 C82,45 86,45 88,50 C90,55 89,57 87,60 C85,63 83,63 81,60 C79,57 78,55 80,50 Z" />
    <path d="M70,60 C75,60 80,65 80,70 C80,78 75,85 70,85 C65,85 60,78 60,70 C60,65 65,60 70,60 Z" />
    
    <!-- Another repeat -->
    <path d="M30,75 C32,70 36,70 38,75 C40,80 39,82 37,85 C35,88 33,88 31,85 C29,82 28,80 30,75 Z" />
    <path d="M20,80 C22,75 26,75 28,80 C30,85 29,87 27,90 C25,93 23,93 21,90 C19,87 18,85 20,80 Z" />
    <path d="M40,80 C42,75 46,75 48,80 C50,85 49,87 47,90 C45,93 43,93 41,90 C39,87 38,85 40,80 Z" />
    <path d="M30,90 C35,90 40,92 40,94 C40,96 35,98 30,98 C25,98 20,96 20,94 C20,92 25,90 30,90 Z" />
  </g>
</svg> 