<svg width="50" height="50" viewBox="0 0 50 50" fill="none" xmlns="http://www.w3.org/2000/svg">
  <circle cx="25" cy="25" r="25" fill="#4F46E5"/>
  <circle cx="25" cy="25" r="20" fill="#4F46E5" stroke="white" stroke-width="2"/>
  
  <!-- Cat ear left -->
  <path d="M15 15L10 8C10 8 8 15 15 15Z" fill="#4F46E5" stroke="white" stroke-width="1.5"/>
  
  <!-- Cat ear right -->
  <path d="M35 15L40 8C40 8 42 15 35 15Z" fill="#4F46E5" stroke="white" stroke-width="1.5"/>
  
  <!-- Dog ear left -->
  <path d="M17 12C17 12 15 5 12 7C9 9 14 14 17 12Z" fill="#4F46E5" stroke="white" stroke-width="1.5"/>
  
  <!-- Dog ear right -->
  <path d="M33 12C33 12 35 5 38 7C41 9 36 14 33 12Z" fill="#4F46E5" stroke="white" stroke-width="1.5"/>
  
  <!-- Face -->
  <circle cx="25" cy="28" r="10" fill="white"/>
  
  <!-- Eyes -->
  <circle cx="20" cy="25" r="2" fill="#4F46E5"/>
  <circle cx="30" cy="25" r="2" fill="#4F46E5"/>
  
  <!-- Nose -->
  <path d="M25 29L23 31H27L25 29Z" fill="#4F46E5"/>
  
  <!-- Mouth -->
  <path d="M21 33C21 33 23 35 25 35C27 35 29 33 29 33" stroke="#4F46E5" stroke-width="1.5" stroke-linecap="round"/>
  
  <!-- Whiskers -->
  <line x1="18" y1="30" x2="13" y2="29" stroke="#4F46E5" stroke-width="0.75" stroke-linecap="round"/>
  <line x1="18" y1="31" x2="13" y2="31" stroke="#4F46E5" stroke-width="0.75" stroke-linecap="round"/>
  <line x1="18" y1="32" x2="13" y2="33" stroke="#4F46E5" stroke-width="0.75" stroke-linecap="round"/>
  
  <line x1="32" y1="30" x2="37" y2="29" stroke="#4F46E5" stroke-width="0.75" stroke-linecap="round"/>
  <line x1="32" y1="31" x2="37" y2="31" stroke="#4F46E5" stroke-width="0.75" stroke-linecap="round"/>
  <line x1="32" y1="32" x2="37" y2="33" stroke="#4F46E5" stroke-width="0.75" stroke-linecap="round"/>
</svg> 